<svg xmlns="http://www.w3.org/2000/svg" viewBox="0 0 512 512">
  <defs>
    <radialGradient id="bg" cx="40%" cy="30%" r="70%">
      <stop offset="0%" stop-color="#013a2a"/>
      <stop offset="100%" stop-color="#001018"/>
    </radialGradient>
    <radialGradient id="glow" cx="50%" cy="20%" r="50%">
      <stop offset="0%" stop-color="#00ed64" stop-opacity="0.18"/>
      <stop offset="100%" stop-color="#00ed64" stop-opacity="0"/>
    </radialGradient>
    <radialGradient id="glass" cx="50%" cy="-10%" r="75%" gradientUnits="objectBoundingBox">
      <stop offset="0%" stop-color="white" stop-opacity="0.24"/>
      <stop offset="55%" stop-color="white" stop-opacity="0.04"/>
      <stop offset="100%" stop-color="white" stop-opacity="0"/>
    </radialGradient>
    <filter id="bloom" x="-25%" y="-25%" width="150%" height="150%">
      <feGaussianBlur in="SourceGraphic" stdDeviation="10" result="blur"/>
      <feMerge><feMergeNode in="blur"/><feMergeNode in="SourceGraphic"/></feMerge>
    </filter>
    <clipPath id="clip">
      <rect width="512" height="512" rx="115" ry="115"/>
    </clipPath>
  </defs>
  <g clip-path="url(#clip)">
    <rect width="512" height="512" fill="url(#bg)"/>
    <rect width="512" height="512" fill="url(#glow)"/>
    <line x1="56" y1="256" x2="456" y2="256" stroke="#00ed64" stroke-width="10" stroke-opacity="0.5"/>
    <path d="M 56 256 C 89 173 123 96 156 96 C 189 96 223 173 256 256 C 289 339 323 416 356 416 C 389 416 423 339 456 256" fill="none" stroke="#00ed64" stroke-width="28" stroke-linecap="round" stroke-opacity="0.35" filter="url(#bloom)"/>
    <path d="M 56 256 C 89 173 123 96 156 96 C 189 96 223 173 256 256 C 289 339 323 416 356 416 C 389 416 423 339 456 256" fill="none" stroke="#00ed64" stroke-width="28" stroke-linecap="round"/>
    <rect width="512" height="512" fill="url(#glass)"/>
    <rect width="512" height="2.5" fill="white" fill-opacity="0.18"/>
  </g>
</svg>
